<svg xmlns="http://www.w3.org/2000/svg" xmlns:xlink="http://www.w3.org/1999/xlink" width="700" zoomAndPan="magnify" viewBox="0 0 525 525.000007" height="700" preserveAspectRatio="xMidYMid meet" version="1.0"><defs><filter x="0%" y="0%" width="100%" height="100%" id="4137d0e889"><feColorMatrix values="0 0 0 0 1 0 0 0 0 1 0 0 0 0 1 0 0 0 1 0" color-interpolation-filters="sRGB"/></filter><mask id="2526a73e26"><g filter="url(#4137d0e889)"><rect x="-52.5" width="630" fill="#000000" y="-52.500001" height="630.000008" fill-opacity="0.77"/></g></mask><clipPath id="e2f2ef40eb"><rect x="0" width="334" y="0" height="122"/></clipPath><mask id="54ca9f798e"><g filter="url(#4137d0e889)"><rect x="-52.5" width="630" fill="#000000" y="-52.500001" height="630.000008" fill-opacity="0.55"/></g></mask><clipPath id="710c666fb2"><rect x="0" width="334" y="0" height="121"/></clipPath><mask id="2057a87421"><g filter="url(#4137d0e889)"><rect x="-52.5" width="630" fill="#000000" y="-52.500001" height="630.000008" fill-opacity="0.33"/></g></mask><clipPath id="ddef0c948e"><rect x="0" width="334" y="0" height="122"/></clipPath></defs><path stroke-linecap="round" transform="matrix(0, 13.817435, -13.817433, 0, 428.377523, 183.952886)" fill="none" stroke-linejoin="round" d="M 8.999913 6.000019 C 8.999913 6.000019 15.000032 10.418973 15.000032 12.000139 C 15.000032 13.581305 8.999913 17.999976 8.999913 17.999976 " stroke="#ed145b" stroke-width="1.5" stroke-opacity="1" stroke-miterlimit="4"/><g mask="url(#2526a73e26)"><g transform="matrix(1, 0, 0, 1, 95, 231)"><g clip-path="url(#e2f2ef40eb)"><path stroke-linecap="round" transform="matrix(0, 13.817435, -13.817433, 0, 333.377523, -106.782848)" fill="none" stroke-linejoin="round" d="M 9.000011 6.000019 C 9.000011 6.000019 15.00013 10.418973 15.00013 12.000139 C 15.00013 13.581305 9.000011 17.999976 9.000011 17.999976 " stroke="#ed145b" stroke-width="1.5" stroke-opacity="1" stroke-miterlimit="4"/></g></g></g><g mask="url(#54ca9f798e)"><g transform="matrix(1, 0, 0, 1, 95, 172)"><g clip-path="url(#710c666fb2)"><path stroke-linecap="round" transform="matrix(0, 13.817435, -13.817433, 0, 333.377523, -107.518596)" fill="none" stroke-linejoin="round" d="M 9.000111 6.000019 C 9.000111 6.000019 14.999947 10.418973 14.999947 12.000139 C 14.999947 13.581305 9.000111 17.999976 9.000111 17.999976 " stroke="#ed145b" stroke-width="1.5" stroke-opacity="1" stroke-miterlimit="4"/></g></g></g><g mask="url(#2057a87421)"><g transform="matrix(1, 0, 0, 1, 95, 112)"><g clip-path="url(#ddef0c948e)"><path stroke-linecap="round" transform="matrix(0, 13.817435, -13.817433, 0, 333.377523, -107.25432)" fill="none" stroke-linejoin="round" d="M 8.999925 6.000019 C 8.999925 6.000019 15.000044 10.418973 15.000044 12.000139 C 15.000044 13.581305 8.999925 17.999976 8.999925 17.999976 " stroke="#ed145b" stroke-width="1.5" stroke-opacity="1" stroke-miterlimit="4"/></g></g></g></svg>