<svg xmlns="http://www.w3.org/2000/svg" xmlns:xlink="http://www.w3.org/1999/xlink" width="400" zoomAndPan="magnify" viewBox="0 0 300 149.999998" height="200" preserveAspectRatio="xMidYMid meet" version="1.0"><defs><filter x="0%" y="0%" width="100%" height="100%" id="d0774484d2"><feColorMatrix values="0 0 0 0 1 0 0 0 0 1 0 0 0 0 1 0 0 0 1 0" color-interpolation-filters="sRGB"/></filter><g/><clipPath id="ab471e0b0c"><path d="M 19.171875 33.136719 L 91.921875 33.136719 L 91.921875 117 L 19.171875 117 Z M 19.171875 33.136719 " clip-rule="nonzero"/></clipPath><clipPath id="9b4d0aef7d"><path d="M 88.171875 52.074219 L 58.863281 35.152344 L 55.402344 33.152344 L 51.9375 35.152344 L 22.632812 52.074219 L 19.171875 54.070312 L 19.171875 95.90625 L 22.632812 97.90625 L 51.941406 114.828125 L 55.402344 116.824219 L 58.863281 114.828125 L 88.171875 97.90625 L 91.632812 95.90625 L 91.632812 54.070312 Z M 55.402344 41.148438 L 78.738281 54.625 L 49.433594 105.382812 L 43.542969 101.984375 L 66.878906 61.566406 L 60.882812 58.105469 L 37.546875 98.523438 L 31.660156 95.125 L 43.105469 75.300781 L 37.109375 71.835938 L 26.09375 90.917969 L 26.09375 58.070312 Z M 55.457031 108.800781 L 84.707031 58.132812 L 84.707031 91.910156 Z M 55.457031 108.800781 " clip-rule="nonzero"/></clipPath><linearGradient x1="-20.56674" gradientTransform="matrix(0.300153, 0, 0, 0.300153, 19.170532, 33.154069)" y1="253.242873" x2="261.982425" gradientUnits="userSpaceOnUse" y2="25.517732" id="ebf00155e2"><stop stop-opacity="1" stop-color="rgb(97.599792%, 36.099243%, 36.099243%)" offset="0"/><stop stop-opacity="1" stop-color="rgb(97.599792%, 36.099243%, 36.099243%)" offset="0.0625"/><stop stop-opacity="1" stop-color="rgb(97.592163%, 36.05957%, 36.097717%)" offset="0.09375"/><stop stop-opacity="1" stop-color="rgb(97.561646%, 35.873413%, 36.096191%)" offset="0.101562"/><stop stop-opacity="1" stop-color="rgb(97.512817%, 35.578918%, 36.091614%)" offset="0.109375"/><stop stop-opacity="1" stop-color="rgb(97.463989%, 35.28595%, 36.087036%)" offset="0.117188"/><stop stop-opacity="1" stop-color="rgb(97.415161%, 34.991455%, 36.082458%)" offset="0.125"/><stop stop-opacity="1" stop-color="rgb(97.366333%, 34.698486%, 36.079407%)" offset="0.132812"/><stop stop-opacity="1" stop-color="rgb(97.317505%, 34.405518%, 36.074829%)" offset="0.140625"/><stop stop-opacity="1" stop-color="rgb(97.268677%, 34.111023%, 36.070251%)" offset="0.148438"/><stop stop-opacity="1" stop-color="rgb(97.219849%, 33.818054%, 36.0672%)" offset="0.15625"/><stop stop-opacity="1" stop-color="rgb(97.171021%, 33.525085%, 36.062622%)" offset="0.164063"/><stop stop-opacity="1" stop-color="rgb(97.122192%, 33.230591%, 36.058044%)" offset="0.171875"/><stop stop-opacity="1" stop-color="rgb(97.07489%, 32.937622%, 36.053467%)" offset="0.179688"/><stop stop-opacity="1" stop-color="rgb(97.026062%, 32.644653%, 36.050415%)" offset="0.1875"/><stop stop-opacity="1" stop-color="rgb(96.977234%, 32.350159%, 36.045837%)" offset="0.195312"/><stop stop-opacity="1" stop-color="rgb(96.928406%, 32.05719%, 36.04126%)" offset="0.203125"/><stop stop-opacity="1" stop-color="rgb(96.879578%, 31.762695%, 36.036682%)" offset="0.210937"/><stop stop-opacity="1" stop-color="rgb(96.83075%, 31.469727%, 36.03363%)" offset="0.21875"/><stop stop-opacity="1" stop-color="rgb(96.781921%, 31.176758%, 36.029053%)" offset="0.226563"/><stop stop-opacity="1" stop-color="rgb(96.733093%, 30.882263%, 36.024475%)" offset="0.234375"/><stop stop-opacity="1" stop-color="rgb(96.684265%, 30.589294%, 36.021423%)" offset="0.242188"/><stop stop-opacity="1" stop-color="rgb(96.635437%, 30.296326%, 36.016846%)" offset="0.25"/><stop stop-opacity="1" stop-color="rgb(96.586609%, 30.001831%, 36.012268%)" offset="0.257812"/><stop stop-opacity="1" stop-color="rgb(96.537781%, 29.708862%, 36.00769%)" offset="0.265625"/><stop stop-opacity="1" stop-color="rgb(96.488953%, 29.415894%, 36.004639%)" offset="0.273438"/><stop stop-opacity="1" stop-color="rgb(96.440125%, 29.121399%, 36.000061%)" offset="0.28125"/><stop stop-opacity="1" stop-color="rgb(96.391296%, 28.82843%, 35.995483%)" offset="0.289062"/><stop stop-opacity="1" stop-color="rgb(96.342468%, 28.533936%, 35.992432%)" offset="0.296875"/><stop stop-opacity="1" stop-color="rgb(96.29364%, 28.240967%, 35.987854%)" offset="0.304687"/><stop stop-opacity="1" stop-color="rgb(96.244812%, 27.947998%, 35.983276%)" offset="0.3125"/><stop stop-opacity="1" stop-color="rgb(96.195984%, 27.653503%, 35.978699%)" offset="0.320313"/><stop stop-opacity="1" stop-color="rgb(96.148682%, 27.360535%, 35.975647%)" offset="0.328125"/><stop stop-opacity="1" stop-color="rgb(96.099854%, 27.067566%, 35.971069%)" offset="0.335938"/><stop stop-opacity="1" stop-color="rgb(96.051025%, 26.773071%, 35.966492%)" offset="0.34375"/><stop stop-opacity="1" stop-color="rgb(96.002197%, 26.480103%, 35.96344%)" offset="0.351562"/><stop stop-opacity="1" stop-color="rgb(95.953369%, 26.185608%, 35.958862%)" offset="0.359375"/><stop stop-opacity="1" stop-color="rgb(95.904541%, 25.892639%, 35.954285%)" offset="0.367188"/><stop stop-opacity="1" stop-color="rgb(95.855713%, 25.59967%, 35.949707%)" offset="0.375"/><stop stop-opacity="1" stop-color="rgb(95.806885%, 25.305176%, 35.946655%)" offset="0.382812"/><stop stop-opacity="1" stop-color="rgb(95.758057%, 25.012207%, 35.942078%)" offset="0.390625"/><stop stop-opacity="1" stop-color="rgb(95.709229%, 24.719238%, 35.9375%)" offset="0.398438"/><stop stop-opacity="1" stop-color="rgb(95.6604%, 24.424744%, 35.934448%)" offset="0.40625"/><stop stop-opacity="1" stop-color="rgb(95.611572%, 24.131775%, 35.929871%)" offset="0.414062"/><stop stop-opacity="1" stop-color="rgb(95.562744%, 23.838806%, 35.925293%)" offset="0.421875"/><stop stop-opacity="1" stop-color="rgb(95.513916%, 23.544312%, 35.920715%)" offset="0.429687"/><stop stop-opacity="1" stop-color="rgb(95.465088%, 23.251343%, 35.917664%)" offset="0.4375"/><stop stop-opacity="1" stop-color="rgb(95.41626%, 22.956848%, 35.913086%)" offset="0.445313"/><stop stop-opacity="1" stop-color="rgb(95.367432%, 22.663879%, 35.908508%)" offset="0.453125"/><stop stop-opacity="1" stop-color="rgb(95.318604%, 22.370911%, 35.903931%)" offset="0.460938"/><stop stop-opacity="1" stop-color="rgb(95.269775%, 22.076416%, 35.900879%)" offset="0.46875"/><stop stop-opacity="1" stop-color="rgb(95.220947%, 21.783447%, 35.896301%)" offset="0.476562"/><stop stop-opacity="1" stop-color="rgb(95.173645%, 21.490479%, 35.891724%)" offset="0.482038"/><stop stop-opacity="1" stop-color="rgb(95.149231%, 21.343994%, 35.890198%)" offset="0.484375"/><stop stop-opacity="1" stop-color="rgb(95.124817%, 21.195984%, 35.888672%)" offset="0.492188"/><stop stop-opacity="1" stop-color="rgb(95.075989%, 20.903015%, 35.884094%)" offset="0.5"/><stop stop-opacity="1" stop-color="rgb(95.027161%, 20.610046%, 35.879517%)" offset="0.507812"/><stop stop-opacity="1" stop-color="rgb(94.978333%, 20.315552%, 35.874939%)" offset="0.515625"/><stop stop-opacity="1" stop-color="rgb(94.929504%, 20.022583%, 35.871887%)" offset="0.517962"/><stop stop-opacity="1" stop-color="rgb(94.90509%, 19.876099%, 35.870361%)" offset="0.523438"/><stop stop-opacity="1" stop-color="rgb(94.880676%, 19.728088%, 35.86731%)" offset="0.53125"/><stop stop-opacity="1" stop-color="rgb(94.831848%, 19.43512%, 35.862732%)" offset="0.539062"/><stop stop-opacity="1" stop-color="rgb(94.78302%, 19.142151%, 35.85968%)" offset="0.546875"/><stop stop-opacity="1" stop-color="rgb(94.734192%, 18.847656%, 35.855103%)" offset="0.554688"/><stop stop-opacity="1" stop-color="rgb(94.685364%, 18.554688%, 35.850525%)" offset="0.5625"/><stop stop-opacity="1" stop-color="rgb(94.636536%, 18.261719%, 35.845947%)" offset="0.570312"/><stop stop-opacity="1" stop-color="rgb(94.587708%, 17.967224%, 35.842896%)" offset="0.578125"/><stop stop-opacity="1" stop-color="rgb(94.538879%, 17.674255%, 35.838318%)" offset="0.585937"/><stop stop-opacity="1" stop-color="rgb(94.490051%, 17.379761%, 35.83374%)" offset="0.59375"/><stop stop-opacity="1" stop-color="rgb(94.441223%, 17.086792%, 35.830688%)" offset="0.601562"/><stop stop-opacity="1" stop-color="rgb(94.392395%, 16.793823%, 35.826111%)" offset="0.609375"/><stop stop-opacity="1" stop-color="rgb(94.343567%, 16.499329%, 35.821533%)" offset="0.617188"/><stop stop-opacity="1" stop-color="rgb(94.294739%, 16.20636%, 35.816956%)" offset="0.625"/><stop stop-opacity="1" stop-color="rgb(94.247437%, 15.913391%, 35.813904%)" offset="0.632812"/><stop stop-opacity="1" stop-color="rgb(94.198608%, 15.618896%, 35.809326%)" offset="0.640625"/><stop stop-opacity="1" stop-color="rgb(94.14978%, 15.325928%, 35.804749%)" offset="0.648438"/><stop stop-opacity="1" stop-color="rgb(94.100952%, 15.032959%, 35.800171%)" offset="0.65625"/><stop stop-opacity="1" stop-color="rgb(94.052124%, 14.738464%, 35.797119%)" offset="0.664063"/><stop stop-opacity="1" stop-color="rgb(94.003296%, 14.445496%, 35.792542%)" offset="0.671875"/><stop stop-opacity="1" stop-color="rgb(93.954468%, 14.151001%, 35.787964%)" offset="0.679688"/><stop stop-opacity="1" stop-color="rgb(93.90564%, 13.858032%, 35.784912%)" offset="0.6875"/><stop stop-opacity="1" stop-color="rgb(93.856812%, 13.565063%, 35.780334%)" offset="0.695312"/><stop stop-opacity="1" stop-color="rgb(93.807983%, 13.270569%, 35.775757%)" offset="0.703125"/><stop stop-opacity="1" stop-color="rgb(93.759155%, 12.9776%, 35.771179%)" offset="0.710938"/><stop stop-opacity="1" stop-color="rgb(93.710327%, 12.684631%, 35.768127%)" offset="0.71875"/><stop stop-opacity="1" stop-color="rgb(93.661499%, 12.390137%, 35.76355%)" offset="0.726562"/><stop stop-opacity="1" stop-color="rgb(93.612671%, 12.097168%, 35.758972%)" offset="0.734375"/><stop stop-opacity="1" stop-color="rgb(93.563843%, 11.804199%, 35.75592%)" offset="0.742188"/><stop stop-opacity="1" stop-color="rgb(93.515015%, 11.509705%, 35.751343%)" offset="0.75"/><stop stop-opacity="1" stop-color="rgb(93.466187%, 11.216736%, 35.746765%)" offset="0.757813"/><stop stop-opacity="1" stop-color="rgb(93.417358%, 10.922241%, 35.742188%)" offset="0.765625"/><stop stop-opacity="1" stop-color="rgb(93.36853%, 10.629272%, 35.739136%)" offset="0.773438"/><stop stop-opacity="1" stop-color="rgb(93.321228%, 10.336304%, 35.734558%)" offset="0.78125"/><stop stop-opacity="1" stop-color="rgb(93.2724%, 10.041809%, 35.72998%)" offset="0.789063"/><stop stop-opacity="1" stop-color="rgb(93.223572%, 9.74884%, 35.726929%)" offset="0.796875"/><stop stop-opacity="1" stop-color="rgb(93.174744%, 9.455872%, 35.722351%)" offset="0.804688"/><stop stop-opacity="1" stop-color="rgb(93.125916%, 9.161377%, 35.717773%)" offset="0.8125"/><stop stop-opacity="1" stop-color="rgb(93.077087%, 8.868408%, 35.713196%)" offset="0.820312"/><stop stop-opacity="1" stop-color="rgb(93.028259%, 8.573914%, 35.710144%)" offset="0.828125"/><stop stop-opacity="1" stop-color="rgb(92.979431%, 8.280945%, 35.705566%)" offset="0.835938"/><stop stop-opacity="1" stop-color="rgb(92.930603%, 7.987976%, 35.700989%)" offset="0.84375"/><stop stop-opacity="1" stop-color="rgb(92.901611%, 7.820129%, 35.699463%)" offset="0.875"/><stop stop-opacity="1" stop-color="rgb(92.89856%, 7.798767%, 35.699463%)" offset="1"/></linearGradient><mask id="791b20b7e5"><g filter="url(#d0774484d2)"><rect x="-30" width="360" fill="#000000" y="-15" height="179.999997" fill-opacity="0.17"/></g></mask><clipPath id="72cc0be261"><rect x="0" width="75" y="0" height="42"/></clipPath><mask id="8315771774"><g filter="url(#d0774484d2)"><rect x="-30" width="360" fill="#000000" y="-15" height="179.999997" fill-opacity="0.17"/></g></mask><clipPath id="8d73e93984"><path d="M 2 0.558594 L 30 0.558594 L 30 33 L 2 33 Z M 2 0.558594 " clip-rule="nonzero"/></clipPath><clipPath id="a561f3641e"><rect x="0" width="87" y="0" height="42"/></clipPath></defs><g clip-path="url(#ab471e0b0c)"><g clip-path="url(#9b4d0aef7d)"><path fill="url(#ebf00155e2)" d="M 19.171875 33.152344 L 19.171875 116.824219 L 91.632812 116.824219 L 91.632812 33.152344 Z M 19.171875 33.152344 " fill-rule="nonzero"/></g></g><g fill="#ed145b" fill-opacity="1"><g transform="translate(99.783184, 71.554232)"><g><path d="M 15.046875 0.640625 C 12.367188 0.640625 10.007812 0.191406 7.96875 -0.703125 C 5.925781 -1.609375 4.335938 -2.847656 3.203125 -4.421875 C 2.078125 -6.003906 1.515625 -7.828125 1.515625 -9.890625 L 9.171875 -9.890625 C 9.171875 -8.484375 9.71875 -7.34375 10.8125 -6.46875 C 11.914062 -5.59375 13.4375 -5.15625 15.375 -5.15625 C 17.007812 -5.15625 18.316406 -5.460938 19.296875 -6.078125 C 20.285156 -6.703125 20.78125 -7.550781 20.78125 -8.625 C 20.78125 -9.46875 20.5 -10.109375 19.9375 -10.546875 C 19.375 -10.984375 18.628906 -11.3125 17.703125 -11.53125 C 16.773438 -11.757812 15.75 -11.941406 14.625 -12.078125 C 13.582031 -12.222656 12.472656 -12.382812 11.296875 -12.5625 C 10.128906 -12.75 8.984375 -13.007812 7.859375 -13.34375 C 6.734375 -13.6875 5.703125 -14.160156 4.765625 -14.765625 C 3.835938 -15.367188 3.097656 -16.171875 2.546875 -17.171875 C 2.003906 -18.171875 1.734375 -19.429688 1.734375 -20.953125 C 1.734375 -22.921875 2.273438 -24.644531 3.359375 -26.125 C 4.441406 -27.601562 5.953125 -28.75 7.890625 -29.5625 C 9.835938 -30.382812 12.109375 -30.796875 14.703125 -30.796875 C 17.347656 -30.796875 19.65625 -30.351562 21.625 -29.46875 C 23.601562 -28.582031 25.144531 -27.359375 26.25 -25.796875 C 27.363281 -24.234375 27.921875 -22.421875 27.921875 -20.359375 L 20.578125 -20.359375 C 20.578125 -21.828125 20.0625 -22.96875 19.03125 -23.78125 C 18 -24.601562 16.65625 -25.015625 15 -25.015625 C 13.445312 -25.015625 12.207031 -24.6875 11.28125 -24.03125 C 10.351562 -23.382812 9.890625 -22.570312 9.890625 -21.59375 C 9.890625 -20.71875 10.210938 -20.050781 10.859375 -19.59375 C 11.503906 -19.144531 12.351562 -18.804688 13.40625 -18.578125 C 14.46875 -18.359375 15.617188 -18.164062 16.859375 -18 C 18.148438 -17.800781 19.492188 -17.550781 20.890625 -17.25 C 22.285156 -16.957031 23.59375 -16.515625 24.8125 -15.921875 C 26.039062 -15.335938 27.035156 -14.492188 27.796875 -13.390625 C 28.554688 -12.296875 28.9375 -10.859375 28.9375 -9.078125 C 28.9375 -7.109375 28.359375 -5.398438 27.203125 -3.953125 C 26.054688 -2.503906 24.4375 -1.375 22.34375 -0.5625 C 20.257812 0.238281 17.828125 0.640625 15.046875 0.640625 Z M 15.046875 0.640625 "/></g></g></g><g fill="#ed145b" fill-opacity="1"><g transform="translate(126.525654, 71.554232)"><g><path d="M 7.9375 0.546875 C 5.882812 0.546875 4.195312 0.0234375 2.875 -1.015625 C 1.550781 -2.054688 0.890625 -3.535156 0.890625 -5.453125 C 0.890625 -7.535156 1.734375 -9.140625 3.421875 -10.265625 C 5.109375 -11.390625 7.726562 -12.222656 11.28125 -12.765625 L 15.421875 -13.390625 L 15.421875 -14.484375 C 15.421875 -15.421875 15.128906 -16.191406 14.546875 -16.796875 C 13.972656 -17.398438 13.191406 -17.703125 12.203125 -17.703125 C 11.253906 -17.703125 10.445312 -17.390625 9.78125 -16.765625 C 9.113281 -16.148438 8.78125 -15.304688 8.78125 -14.234375 L 1.859375 -14.234375 C 1.859375 -15.835938 2.285156 -17.234375 3.140625 -18.421875 C 4.003906 -19.609375 5.222656 -20.53125 6.796875 -21.1875 C 8.378906 -21.851562 10.210938 -22.1875 12.296875 -22.1875 C 14.378906 -22.1875 16.191406 -21.851562 17.734375 -21.1875 C 19.285156 -20.53125 20.5 -19.601562 21.375 -18.40625 C 22.25 -17.207031 22.6875 -15.804688 22.6875 -14.203125 L 22.6875 0 L 15.421875 0 L 15.421875 -2.875 L 15.046875 -2.875 C 14.421875 -1.75 13.453125 -0.894531 12.140625 -0.3125 C 10.835938 0.257812 9.4375 0.546875 7.9375 0.546875 Z M 10.90625 -3.765625 C 12.25 -3.765625 13.335938 -4.1875 14.171875 -5.03125 C 15.003906 -5.875 15.421875 -6.929688 15.421875 -8.203125 L 15.421875 -9.671875 L 11.65625 -9.046875 C 10.3125 -8.816406 9.34375 -8.460938 8.75 -7.984375 C 8.15625 -7.503906 7.859375 -6.898438 7.859375 -6.171875 C 7.859375 -5.460938 8.125 -4.882812 8.65625 -4.4375 C 9.195312 -3.988281 9.945312 -3.765625 10.90625 -3.765625 Z M 10.90625 -3.765625 "/></g></g></g><g fill="#ed145b" fill-opacity="1"><g transform="translate(147.268867, 71.554232)"><g><path d="M 2.03125 0 L 2.03125 -21.71875 L 9.25 -21.71875 L 9.25 -18.078125 L 9.671875 -18.078125 C 10.296875 -19.347656 11.175781 -20.363281 12.3125 -21.125 C 13.457031 -21.882812 14.75 -22.265625 16.1875 -22.265625 C 17.707031 -22.265625 19.070312 -21.847656 20.28125 -21.015625 C 21.488281 -20.179688 22.316406 -19.09375 22.765625 -17.75 L 23.15625 -17.75 C 23.632812 -19.15625 24.460938 -20.257812 25.640625 -21.0625 C 26.828125 -21.863281 28.238281 -22.265625 29.875 -22.265625 C 31.394531 -22.265625 32.738281 -21.921875 33.90625 -21.234375 C 35.070312 -20.546875 35.976562 -19.570312 36.625 -18.3125 C 37.28125 -17.0625 37.609375 -15.601562 37.609375 -13.9375 L 37.609375 0 L 30.328125 0 L 30.328125 -12.203125 C 30.328125 -13.335938 30.015625 -14.285156 29.390625 -15.046875 C 28.773438 -15.804688 27.921875 -16.195312 26.828125 -16.21875 C 25.753906 -16.21875 24.894531 -15.851562 24.25 -15.125 C 23.601562 -14.394531 23.28125 -13.421875 23.28125 -12.203125 L 23.28125 0 L 16.0625 0 L 16.0625 -12.203125 C 16.0625 -13.421875 15.75 -14.394531 15.125 -15.125 C 14.507812 -15.851562 13.691406 -16.21875 12.671875 -16.21875 C 11.628906 -16.21875 10.804688 -15.851562 10.203125 -15.125 C 9.597656 -14.394531 9.296875 -13.421875 9.296875 -12.203125 L 9.296875 0 Z M 2.03125 0 "/></g></g></g><g fill="#ed145b" fill-opacity="1"><g transform="translate(182.925708, 71.554232)"><g><path d="M 2.03125 9.71875 L 2.03125 -21.71875 L 9.296875 -21.71875 L 9.296875 -18.59375 L 9.671875 -18.59375 C 10.410156 -19.75 11.332031 -20.648438 12.4375 -21.296875 C 13.550781 -21.941406 14.882812 -22.265625 16.4375 -22.265625 C 18.375 -22.265625 20.066406 -21.800781 21.515625 -20.875 C 22.972656 -19.945312 24.101562 -18.628906 24.90625 -16.921875 C 25.707031 -15.210938 26.109375 -13.191406 26.109375 -10.859375 C 26.109375 -8.546875 25.707031 -6.535156 24.90625 -4.828125 C 24.101562 -3.128906 22.972656 -1.804688 21.515625 -0.859375 C 20.066406 0.078125 18.375 0.546875 16.4375 0.546875 C 14.882812 0.546875 13.550781 0.222656 12.4375 -0.421875 C 11.332031 -1.066406 10.410156 -1.96875 9.671875 -3.125 L 9.296875 -3.125 L 9.296875 9.71875 Z M 13.90625 -5.5 C 15.34375 -5.5 16.523438 -6.003906 17.453125 -7.015625 C 18.378906 -8.023438 18.84375 -9.304688 18.84375 -10.859375 C 18.84375 -12.410156 18.378906 -13.691406 17.453125 -14.703125 C 16.523438 -15.710938 15.34375 -16.21875 13.90625 -16.21875 C 12.46875 -16.21875 11.28125 -15.710938 10.34375 -14.703125 C 9.414062 -13.691406 8.953125 -12.410156 8.953125 -10.859375 C 8.953125 -9.304688 9.414062 -8.023438 10.34375 -7.015625 C 11.28125 -6.003906 12.46875 -5.5 13.90625 -5.5 Z M 13.90625 -5.5 "/></g></g></g><g fill="#ed145b" fill-opacity="1"><g transform="translate(206.288311, 71.554232)"><g><path d="M 7.9375 0.546875 C 5.882812 0.546875 4.195312 0.0234375 2.875 -1.015625 C 1.550781 -2.054688 0.890625 -3.535156 0.890625 -5.453125 C 0.890625 -7.535156 1.734375 -9.140625 3.421875 -10.265625 C 5.109375 -11.390625 7.726562 -12.222656 11.28125 -12.765625 L 15.421875 -13.390625 L 15.421875 -14.484375 C 15.421875 -15.421875 15.128906 -16.191406 14.546875 -16.796875 C 13.972656 -17.398438 13.191406 -17.703125 12.203125 -17.703125 C 11.253906 -17.703125 10.445312 -17.390625 9.78125 -16.765625 C 9.113281 -16.148438 8.78125 -15.304688 8.78125 -14.234375 L 1.859375 -14.234375 C 1.859375 -15.835938 2.285156 -17.234375 3.140625 -18.421875 C 4.003906 -19.609375 5.222656 -20.53125 6.796875 -21.1875 C 8.378906 -21.851562 10.210938 -22.1875 12.296875 -22.1875 C 14.378906 -22.1875 16.191406 -21.851562 17.734375 -21.1875 C 19.285156 -20.53125 20.5 -19.601562 21.375 -18.40625 C 22.25 -17.207031 22.6875 -15.804688 22.6875 -14.203125 L 22.6875 0 L 15.421875 0 L 15.421875 -2.875 L 15.046875 -2.875 C 14.421875 -1.75 13.453125 -0.894531 12.140625 -0.3125 C 10.835938 0.257812 9.4375 0.546875 7.9375 0.546875 Z M 10.90625 -3.765625 C 12.25 -3.765625 13.335938 -4.1875 14.171875 -5.03125 C 15.003906 -5.875 15.421875 -6.929688 15.421875 -8.203125 L 15.421875 -9.671875 L 11.65625 -9.046875 C 10.3125 -8.816406 9.34375 -8.460938 8.75 -7.984375 C 8.15625 -7.503906 7.859375 -6.898438 7.859375 -6.171875 C 7.859375 -5.460938 8.125 -4.882812 8.65625 -4.4375 C 9.195312 -3.988281 9.945312 -3.765625 10.90625 -3.765625 Z M 10.90625 -3.765625 "/></g></g></g><g fill="#ed145b" fill-opacity="1"><g transform="translate(227.031522, 71.554232)"><g><path d="M 5.75 -24.296875 C 4.5625 -24.296875 3.578125 -24.664062 2.796875 -25.40625 C 2.023438 -26.15625 1.640625 -27.109375 1.640625 -28.265625 C 1.640625 -29.421875 2.023438 -30.367188 2.796875 -31.109375 C 3.578125 -31.859375 4.5625 -32.234375 5.75 -32.234375 C 6.957031 -32.234375 7.945312 -31.859375 8.71875 -31.109375 C 9.5 -30.367188 9.890625 -29.421875 9.890625 -28.265625 C 9.890625 -27.109375 9.5 -26.15625 8.71875 -25.40625 C 7.945312 -24.664062 6.957031 -24.296875 5.75 -24.296875 Z M 2.109375 0 L 2.109375 -21.71875 L 9.375 -21.71875 L 9.375 0 Z M 2.109375 0 "/></g></g></g><g fill="#ed145b" fill-opacity="1"><g transform="translate(234.804535, 71.554232)"><g><path d="M 13.140625 0.546875 C 10.691406 0.546875 8.550781 0.0859375 6.71875 -0.828125 C 4.882812 -1.742188 3.457031 -3.054688 2.4375 -4.765625 C 1.425781 -6.484375 0.921875 -8.515625 0.921875 -10.859375 C 0.921875 -13.222656 1.421875 -15.253906 2.421875 -16.953125 C 3.421875 -18.660156 4.835938 -19.972656 6.671875 -20.890625 C 8.503906 -21.804688 10.660156 -22.265625 13.140625 -22.265625 C 15.585938 -22.265625 17.726562 -21.804688 19.5625 -20.890625 C 21.394531 -19.972656 22.8125 -18.660156 23.8125 -16.953125 C 24.8125 -15.253906 25.3125 -13.222656 25.3125 -10.859375 C 25.3125 -8.492188 24.8125 -6.457031 23.8125 -4.75 C 22.8125 -3.050781 21.398438 -1.742188 19.578125 -0.828125 C 17.765625 0.0859375 15.617188 0.546875 13.140625 0.546875 Z M 13.140625 -5.5 C 14.578125 -5.5 15.753906 -6 16.671875 -7 C 17.585938 -8 18.046875 -9.285156 18.046875 -10.859375 C 18.046875 -12.429688 17.585938 -13.71875 16.671875 -14.71875 C 15.753906 -15.71875 14.578125 -16.21875 13.140625 -16.21875 C 11.671875 -16.21875 10.476562 -15.71875 9.5625 -14.71875 C 8.65625 -13.71875 8.203125 -12.429688 8.203125 -10.859375 C 8.203125 -9.285156 8.65625 -8 9.5625 -7 C 10.476562 -6 11.671875 -5.5 13.140625 -5.5 Z M 13.140625 -5.5 "/></g></g></g><g fill="#ed145b" fill-opacity="1"><g transform="translate(99.783184, 101.834311)"><g><path d="M 3.34375 0 L 3.34375 -29.78125 L 13.390625 -29.78125 C 16.628906 -29.78125 19.472656 -29.179688 21.921875 -27.984375 C 24.378906 -26.785156 26.289062 -25.082031 27.65625 -22.875 C 29.019531 -20.664062 29.703125 -18.015625 29.703125 -14.921875 C 29.703125 -11.816406 29.023438 -9.148438 27.671875 -6.921875 C 26.316406 -4.703125 24.414062 -2.992188 21.96875 -1.796875 C 19.519531 -0.597656 16.660156 0 13.390625 0 Z M 7.1875 -3.171875 L 13.390625 -3.171875 C 15.867188 -3.171875 18.03125 -3.632812 19.875 -4.5625 C 21.71875 -5.488281 23.160156 -6.832031 24.203125 -8.59375 C 25.242188 -10.351562 25.765625 -12.460938 25.765625 -14.921875 C 25.765625 -17.367188 25.242188 -19.472656 24.203125 -21.234375 C 23.160156 -22.992188 21.707031 -24.335938 19.84375 -25.265625 C 17.988281 -26.191406 15.835938 -26.65625 13.390625 -26.65625 L 7.1875 -26.65625 Z M 7.1875 -3.171875 "/></g></g></g><g fill="#ed145b" fill-opacity="1"><g transform="translate(127.328274, 101.834311)"><g><path d="M 13.4375 0.765625 C 11.15625 0.765625 9.140625 0.28125 7.390625 -0.6875 C 5.648438 -1.664062 4.28125 -3.019531 3.28125 -4.75 C 2.28125 -6.476562 1.78125 -8.472656 1.78125 -10.734375 C 1.78125 -12.984375 2.28125 -14.957031 3.28125 -16.65625 C 4.28125 -18.363281 5.648438 -19.695312 7.390625 -20.65625 C 9.140625 -21.613281 11.15625 -22.09375 13.4375 -22.09375 C 15.6875 -22.09375 17.65625 -21.609375 19.34375 -20.640625 C 21.039062 -19.671875 22.367188 -18.332031 23.328125 -16.625 C 24.285156 -14.914062 24.765625 -12.9375 24.765625 -10.6875 L 24.71875 -9.640625 L 5.40625 -9.640625 C 5.519531 -8.140625 5.925781 -6.8125 6.625 -5.65625 C 7.332031 -4.5 8.285156 -3.597656 9.484375 -2.953125 C 10.679688 -2.304688 12.039062 -1.984375 13.5625 -1.984375 C 15.226562 -1.984375 16.734375 -2.429688 18.078125 -3.328125 C 19.429688 -4.234375 20.375 -5.378906 20.90625 -6.765625 L 24.078125 -6.171875 C 23.660156 -4.816406 22.921875 -3.617188 21.859375 -2.578125 C 20.804688 -1.535156 19.550781 -0.71875 18.09375 -0.125 C 16.644531 0.46875 15.09375 0.765625 13.4375 0.765625 Z M 5.40625 -12 L 21.125 -12 C 21.039062 -13.4375 20.648438 -14.703125 19.953125 -15.796875 C 19.265625 -16.898438 18.347656 -17.765625 17.203125 -18.390625 C 16.066406 -19.023438 14.78125 -19.34375 13.34375 -19.34375 C 11.15625 -19.34375 9.332031 -18.660156 7.875 -17.296875 C 6.425781 -15.929688 5.601562 -14.164062 5.40625 -12 Z M 5.40625 -12 "/></g></g></g><g fill="#ed145b" fill-opacity="1"><g transform="translate(149.550085, 101.834311)"><g><path d="M 9.203125 0 L 0.84375 -21.34375 L 4.6875 -21.34375 L 11.75 -3 L 12 -3 L 19.0625 -21.34375 L 22.90625 -21.34375 L 14.53125 0 Z M 9.203125 0 "/></g></g></g><g fill="#ed145b" fill-opacity="1"><g transform="translate(169.068006, 101.834311)"><g><path d="M 13.4375 0.765625 C 11.15625 0.765625 9.140625 0.28125 7.390625 -0.6875 C 5.648438 -1.664062 4.28125 -3.019531 3.28125 -4.75 C 2.28125 -6.476562 1.78125 -8.472656 1.78125 -10.734375 C 1.78125 -12.984375 2.28125 -14.957031 3.28125 -16.65625 C 4.28125 -18.363281 5.648438 -19.695312 7.390625 -20.65625 C 9.140625 -21.613281 11.15625 -22.09375 13.4375 -22.09375 C 15.6875 -22.09375 17.65625 -21.609375 19.34375 -20.640625 C 21.039062 -19.671875 22.367188 -18.332031 23.328125 -16.625 C 24.285156 -14.914062 24.765625 -12.9375 24.765625 -10.6875 L 24.71875 -9.640625 L 5.40625 -9.640625 C 5.519531 -8.140625 5.925781 -6.8125 6.625 -5.65625 C 7.332031 -4.5 8.285156 -3.597656 9.484375 -2.953125 C 10.679688 -2.304688 12.039062 -1.984375 13.5625 -1.984375 C 15.226562 -1.984375 16.734375 -2.429688 18.078125 -3.328125 C 19.429688 -4.234375 20.375 -5.378906 20.90625 -6.765625 L 24.078125 -6.171875 C 23.660156 -4.816406 22.921875 -3.617188 21.859375 -2.578125 C 20.804688 -1.535156 19.550781 -0.71875 18.09375 -0.125 C 16.644531 0.46875 15.09375 0.765625 13.4375 0.765625 Z M 5.40625 -12 L 21.125 -12 C 21.039062 -13.4375 20.648438 -14.703125 19.953125 -15.796875 C 19.265625 -16.898438 18.347656 -17.765625 17.203125 -18.390625 C 16.066406 -19.023438 14.78125 -19.34375 13.34375 -19.34375 C 11.15625 -19.34375 9.332031 -18.660156 7.875 -17.296875 C 6.425781 -15.929688 5.601562 -14.164062 5.40625 -12 Z M 5.40625 -12 "/></g></g></g><g fill="#ed145b" fill-opacity="1"><g transform="translate(191.289814, 101.834311)"><g><path d="M 3.125 0 L 3.125 -31.046875 L 6.671875 -31.046875 L 6.671875 0 Z M 3.125 0 "/></g></g></g><g fill="#ed145b" fill-opacity="1"><g transform="translate(196.823576, 101.834311)"><g><path d="M 13.1875 0.765625 C 10.925781 0.765625 8.9375 0.285156 7.21875 -0.671875 C 5.5 -1.628906 4.15625 -2.972656 3.1875 -4.703125 C 2.21875 -6.441406 1.734375 -8.4375 1.734375 -10.6875 C 1.734375 -12.96875 2.21875 -14.957031 3.1875 -16.65625 C 4.15625 -18.363281 5.5 -19.695312 7.21875 -20.65625 C 8.9375 -21.613281 10.925781 -22.09375 13.1875 -22.09375 C 15.4375 -22.09375 17.410156 -21.613281 19.109375 -20.65625 C 20.816406 -19.695312 22.15625 -18.363281 23.125 -16.65625 C 24.101562 -14.957031 24.59375 -12.96875 24.59375 -10.6875 C 24.59375 -8.4375 24.101562 -6.441406 23.125 -4.703125 C 22.15625 -2.972656 20.816406 -1.628906 19.109375 -0.671875 C 17.410156 0.285156 15.4375 0.765625 13.1875 0.765625 Z M 13.1875 -2.359375 C 14.707031 -2.359375 16.054688 -2.71875 17.234375 -3.4375 C 18.421875 -4.15625 19.351562 -5.140625 20.03125 -6.390625 C 20.707031 -7.648438 21.046875 -9.082031 21.046875 -10.6875 C 21.046875 -12.289062 20.707031 -13.710938 20.03125 -14.953125 C 19.351562 -16.191406 18.421875 -17.171875 17.234375 -17.890625 C 16.054688 -18.609375 14.707031 -18.96875 13.1875 -18.96875 C 11.664062 -18.96875 10.304688 -18.609375 9.109375 -17.890625 C 7.910156 -17.171875 6.972656 -16.191406 6.296875 -14.953125 C 5.617188 -13.710938 5.28125 -12.289062 5.28125 -10.6875 C 5.28125 -9.082031 5.617188 -7.648438 6.296875 -6.390625 C 6.972656 -5.140625 7.910156 -4.15625 9.109375 -3.4375 C 10.304688 -2.71875 11.664062 -2.359375 13.1875 -2.359375 Z M 13.1875 -2.359375 "/></g></g></g><g fill="#ed145b" fill-opacity="1"><g transform="translate(218.876384, 101.834311)"><g><path d="M 3.171875 9.71875 L 3.171875 -21.34375 L 6.71875 -21.34375 L 6.71875 -17.03125 L 7.0625 -17.03125 C 7.820312 -18.570312 8.910156 -19.800781 10.328125 -20.71875 C 11.753906 -21.632812 13.4375 -22.09375 15.375 -22.09375 C 17.4375 -22.09375 19.257812 -21.613281 20.84375 -20.65625 C 22.4375 -19.695312 23.679688 -18.359375 24.578125 -16.640625 C 25.484375 -14.921875 25.9375 -12.9375 25.9375 -10.6875 C 25.9375 -8.4375 25.484375 -6.453125 24.578125 -4.734375 C 23.679688 -3.015625 22.4375 -1.664062 20.84375 -0.6875 C 19.257812 0.28125 17.4375 0.765625 15.375 0.765625 C 13.4375 0.765625 11.753906 0.304688 10.328125 -0.609375 C 8.910156 -1.523438 7.820312 -2.757812 7.0625 -4.3125 L 6.71875 -4.3125 L 6.71875 9.71875 Z M 14.484375 -2.359375 C 16.003906 -2.359375 17.359375 -2.71875 18.546875 -3.4375 C 19.734375 -4.15625 20.660156 -5.140625 21.328125 -6.390625 C 22.003906 -7.648438 22.34375 -9.082031 22.34375 -10.6875 C 22.34375 -12.289062 22.003906 -13.710938 21.328125 -14.953125 C 20.660156 -16.191406 19.734375 -17.171875 18.546875 -17.890625 C 17.359375 -18.609375 16.003906 -18.96875 14.484375 -18.96875 C 12.960938 -18.96875 11.609375 -18.609375 10.421875 -17.890625 C 9.242188 -17.171875 8.3125 -16.191406 7.625 -14.953125 C 6.9375 -13.710938 6.59375 -12.289062 6.59375 -10.6875 C 6.59375 -9.082031 6.9375 -7.648438 7.625 -6.390625 C 8.3125 -5.140625 9.242188 -4.15625 10.421875 -3.4375 C 11.609375 -2.71875 12.960938 -2.359375 14.484375 -2.359375 Z M 14.484375 -2.359375 "/></g></g></g><g fill="#ed145b" fill-opacity="1"><g transform="translate(242.281135, 101.834311)"><g><path d="M 13.4375 0.765625 C 11.15625 0.765625 9.140625 0.28125 7.390625 -0.6875 C 5.648438 -1.664062 4.28125 -3.019531 3.28125 -4.75 C 2.28125 -6.476562 1.78125 -8.472656 1.78125 -10.734375 C 1.78125 -12.984375 2.28125 -14.957031 3.28125 -16.65625 C 4.28125 -18.363281 5.648438 -19.695312 7.390625 -20.65625 C 9.140625 -21.613281 11.15625 -22.09375 13.4375 -22.09375 C 15.6875 -22.09375 17.65625 -21.609375 19.34375 -20.640625 C 21.039062 -19.671875 22.367188 -18.332031 23.328125 -16.625 C 24.285156 -14.914062 24.765625 -12.9375 24.765625 -10.6875 L 24.71875 -9.640625 L 5.40625 -9.640625 C 5.519531 -8.140625 5.925781 -6.8125 6.625 -5.65625 C 7.332031 -4.5 8.285156 -3.597656 9.484375 -2.953125 C 10.679688 -2.304688 12.039062 -1.984375 13.5625 -1.984375 C 15.226562 -1.984375 16.734375 -2.429688 18.078125 -3.328125 C 19.429688 -4.234375 20.375 -5.378906 20.90625 -6.765625 L 24.078125 -6.171875 C 23.660156 -4.816406 22.921875 -3.617188 21.859375 -2.578125 C 20.804688 -1.535156 19.550781 -0.71875 18.09375 -0.125 C 16.644531 0.46875 15.09375 0.765625 13.4375 0.765625 Z M 5.40625 -12 L 21.125 -12 C 21.039062 -13.4375 20.648438 -14.703125 19.953125 -15.796875 C 19.265625 -16.898438 18.347656 -17.765625 17.203125 -18.390625 C 16.066406 -19.023438 14.78125 -19.34375 13.34375 -19.34375 C 11.15625 -19.34375 9.332031 -18.660156 7.875 -17.296875 C 6.425781 -15.929688 5.601562 -14.164062 5.40625 -12 Z M 5.40625 -12 "/></g></g></g><g fill="#ed145b" fill-opacity="1"><g transform="translate(264.502943, 101.834311)"><g><path d="M 3.171875 0 L 3.171875 -21.34375 L 6.671875 -21.34375 L 6.671875 -17.75 L 7.015625 -17.75 C 7.523438 -18.988281 8.25 -19.96875 9.1875 -20.6875 C 10.132812 -21.40625 11.253906 -21.765625 12.546875 -21.765625 C 13.671875 -21.765625 14.65625 -21.550781 15.5 -21.125 L 15.5 -17.75 C 14.40625 -18.332031 13.265625 -18.625 12.078125 -18.625 C 10.453125 -18.625 9.148438 -17.96875 8.171875 -16.65625 C 7.203125 -15.351562 6.71875 -13.628906 6.71875 -11.484375 L 6.71875 0 Z M 3.171875 0 "/></g></g></g><g fill="#ed145b" fill-opacity="1"><g transform="translate(276.880911, 101.834311)"><g><path d="M 4.09375 0.46875 C 3.414062 0.46875 2.859375 0.25 2.421875 -0.1875 C 1.992188 -0.625 1.78125 -1.195312 1.78125 -1.90625 C 1.78125 -2.550781 1.992188 -3.082031 2.421875 -3.5 C 2.859375 -3.925781 3.414062 -4.140625 4.09375 -4.140625 C 4.800781 -4.140625 5.375 -3.925781 5.8125 -3.5 C 6.25 -3.082031 6.46875 -2.550781 6.46875 -1.90625 C 6.46875 -1.195312 6.25 -0.625 5.8125 -0.1875 C 5.375 0.25 4.800781 0.46875 4.09375 0.46875 Z M 4.09375 0.46875 "/></g></g></g><g mask="url(#791b20b7e5)"><g transform="matrix(1, 0, 0, 1, 99, 71)"><g clip-path="url(#72cc0be261)"><g fill="#f95c5c" fill-opacity="1"><g transform="translate(0.783183, 30.834309)"><g><path d="M 3.34375 0 L 3.34375 -29.78125 L 13.390625 -29.78125 C 16.628906 -29.78125 19.472656 -29.179688 21.921875 -27.984375 C 24.378906 -26.785156 26.289062 -25.082031 27.65625 -22.875 C 29.019531 -20.664062 29.703125 -18.015625 29.703125 -14.921875 C 29.703125 -11.816406 29.023438 -9.148438 27.671875 -6.921875 C 26.316406 -4.703125 24.414062 -2.992188 21.96875 -1.796875 C 19.519531 -0.597656 16.660156 0 13.390625 0 Z M 7.1875 -3.171875 L 13.390625 -3.171875 C 15.867188 -3.171875 18.03125 -3.632812 19.875 -4.5625 C 21.71875 -5.488281 23.160156 -6.832031 24.203125 -8.59375 C 25.242188 -10.351562 25.765625 -12.460938 25.765625 -14.921875 C 25.765625 -17.367188 25.242188 -19.472656 24.203125 -21.234375 C 23.160156 -22.992188 21.707031 -24.335938 19.84375 -25.265625 C 17.988281 -26.191406 15.835938 -26.65625 13.390625 -26.65625 L 7.1875 -26.65625 Z M 7.1875 -3.171875 "/></g></g></g><g fill="#f95c5c" fill-opacity="1"><g transform="translate(28.328273, 30.834309)"><g><path d="M 13.4375 0.765625 C 11.15625 0.765625 9.140625 0.28125 7.390625 -0.6875 C 5.648438 -1.664062 4.28125 -3.019531 3.28125 -4.75 C 2.28125 -6.476562 1.78125 -8.472656 1.78125 -10.734375 C 1.78125 -12.984375 2.28125 -14.957031 3.28125 -16.65625 C 4.28125 -18.363281 5.648438 -19.695312 7.390625 -20.65625 C 9.140625 -21.613281 11.15625 -22.09375 13.4375 -22.09375 C 15.6875 -22.09375 17.65625 -21.609375 19.34375 -20.640625 C 21.039062 -19.671875 22.367188 -18.332031 23.328125 -16.625 C 24.285156 -14.914062 24.765625 -12.9375 24.765625 -10.6875 L 24.71875 -9.640625 L 5.40625 -9.640625 C 5.519531 -8.140625 5.925781 -6.8125 6.625 -5.65625 C 7.332031 -4.5 8.285156 -3.597656 9.484375 -2.953125 C 10.679688 -2.304688 12.039062 -1.984375 13.5625 -1.984375 C 15.226562 -1.984375 16.734375 -2.429688 18.078125 -3.328125 C 19.429688 -4.234375 20.375 -5.378906 20.90625 -6.765625 L 24.078125 -6.171875 C 23.660156 -4.816406 22.921875 -3.617188 21.859375 -2.578125 C 20.804688 -1.535156 19.550781 -0.71875 18.09375 -0.125 C 16.644531 0.46875 15.09375 0.765625 13.4375 0.765625 Z M 5.40625 -12 L 21.125 -12 C 21.039062 -13.4375 20.648438 -14.703125 19.953125 -15.796875 C 19.265625 -16.898438 18.347656 -17.765625 17.203125 -18.390625 C 16.066406 -19.023438 14.78125 -19.34375 13.34375 -19.34375 C 11.15625 -19.34375 9.332031 -18.660156 7.875 -17.296875 C 6.425781 -15.929688 5.601562 -14.164062 5.40625 -12 Z M 5.40625 -12 "/></g></g></g><g fill="#f95c5c" fill-opacity="1"><g transform="translate(50.550084, 30.834309)"><g><path d="M 9.203125 0 L 0.84375 -21.34375 L 4.6875 -21.34375 L 11.75 -3 L 12 -3 L 19.0625 -21.34375 L 22.90625 -21.34375 L 14.53125 0 Z M 9.203125 0 "/></g></g></g></g></g></g><g mask="url(#8315771774)"><g transform="matrix(1, 0, 0, 1, 99, 40)"><g clip-path="url(#a561f3641e)"><g clip-path="url(#8d73e93984)"><g fill="#f95c5c" fill-opacity="1"><g transform="translate(0.783183, 31.554233)"><g><path d="M 15.046875 0.640625 C 12.367188 0.640625 10.007812 0.191406 7.96875 -0.703125 C 5.925781 -1.609375 4.335938 -2.847656 3.203125 -4.421875 C 2.078125 -6.003906 1.515625 -7.828125 1.515625 -9.890625 L 9.171875 -9.890625 C 9.171875 -8.484375 9.71875 -7.34375 10.8125 -6.46875 C 11.914062 -5.59375 13.4375 -5.15625 15.375 -5.15625 C 17.007812 -5.15625 18.316406 -5.460938 19.296875 -6.078125 C 20.285156 -6.703125 20.78125 -7.550781 20.78125 -8.625 C 20.78125 -9.46875 20.5 -10.109375 19.9375 -10.546875 C 19.375 -10.984375 18.628906 -11.3125 17.703125 -11.53125 C 16.773438 -11.757812 15.75 -11.941406 14.625 -12.078125 C 13.582031 -12.222656 12.472656 -12.382812 11.296875 -12.5625 C 10.128906 -12.75 8.984375 -13.007812 7.859375 -13.34375 C 6.734375 -13.6875 5.703125 -14.160156 4.765625 -14.765625 C 3.835938 -15.367188 3.097656 -16.171875 2.546875 -17.171875 C 2.003906 -18.171875 1.734375 -19.429688 1.734375 -20.953125 C 1.734375 -22.921875 2.273438 -24.644531 3.359375 -26.125 C 4.441406 -27.601562 5.953125 -28.75 7.890625 -29.5625 C 9.835938 -30.382812 12.109375 -30.796875 14.703125 -30.796875 C 17.347656 -30.796875 19.65625 -30.351562 21.625 -29.46875 C 23.601562 -28.582031 25.144531 -27.359375 26.25 -25.796875 C 27.363281 -24.234375 27.921875 -22.421875 27.921875 -20.359375 L 20.578125 -20.359375 C 20.578125 -21.828125 20.0625 -22.96875 19.03125 -23.78125 C 18 -24.601562 16.65625 -25.015625 15 -25.015625 C 13.445312 -25.015625 12.207031 -24.6875 11.28125 -24.03125 C 10.351562 -23.382812 9.890625 -22.570312 9.890625 -21.59375 C 9.890625 -20.71875 10.210938 -20.050781 10.859375 -19.59375 C 11.503906 -19.144531 12.351562 -18.804688 13.40625 -18.578125 C 14.46875 -18.359375 15.617188 -18.164062 16.859375 -18 C 18.148438 -17.800781 19.492188 -17.550781 20.890625 -17.25 C 22.285156 -16.957031 23.59375 -16.515625 24.8125 -15.921875 C 26.039062 -15.335938 27.035156 -14.492188 27.796875 -13.390625 C 28.554688 -12.296875 28.9375 -10.859375 28.9375 -9.078125 C 28.9375 -7.109375 28.359375 -5.398438 27.203125 -3.953125 C 26.054688 -2.503906 24.4375 -1.375 22.34375 -0.5625 C 20.257812 0.238281 17.828125 0.640625 15.046875 0.640625 Z M 15.046875 0.640625 "/></g></g></g></g><g fill="#f95c5c" fill-opacity="1"><g transform="translate(27.525653, 31.554233)"><g><path d="M 7.9375 0.546875 C 5.882812 0.546875 4.195312 0.0234375 2.875 -1.015625 C 1.550781 -2.054688 0.890625 -3.535156 0.890625 -5.453125 C 0.890625 -7.535156 1.734375 -9.140625 3.421875 -10.265625 C 5.109375 -11.390625 7.726562 -12.222656 11.28125 -12.765625 L 15.421875 -13.390625 L 15.421875 -14.484375 C 15.421875 -15.421875 15.128906 -16.191406 14.546875 -16.796875 C 13.972656 -17.398438 13.191406 -17.703125 12.203125 -17.703125 C 11.253906 -17.703125 10.445312 -17.390625 9.78125 -16.765625 C 9.113281 -16.148438 8.78125 -15.304688 8.78125 -14.234375 L 1.859375 -14.234375 C 1.859375 -15.835938 2.285156 -17.234375 3.140625 -18.421875 C 4.003906 -19.609375 5.222656 -20.53125 6.796875 -21.1875 C 8.378906 -21.851562 10.210938 -22.1875 12.296875 -22.1875 C 14.378906 -22.1875 16.191406 -21.851562 17.734375 -21.1875 C 19.285156 -20.53125 20.5 -19.601562 21.375 -18.40625 C 22.25 -17.207031 22.6875 -15.804688 22.6875 -14.203125 L 22.6875 0 L 15.421875 0 L 15.421875 -2.875 L 15.046875 -2.875 C 14.421875 -1.75 13.453125 -0.894531 12.140625 -0.3125 C 10.835938 0.257812 9.4375 0.546875 7.9375 0.546875 Z M 10.90625 -3.765625 C 12.25 -3.765625 13.335938 -4.1875 14.171875 -5.03125 C 15.003906 -5.875 15.421875 -6.929688 15.421875 -8.203125 L 15.421875 -9.671875 L 11.65625 -9.046875 C 10.3125 -8.816406 9.34375 -8.460938 8.75 -7.984375 C 8.15625 -7.503906 7.859375 -6.898438 7.859375 -6.171875 C 7.859375 -5.460938 8.125 -4.882812 8.65625 -4.4375 C 9.195312 -3.988281 9.945312 -3.765625 10.90625 -3.765625 Z M 10.90625 -3.765625 "/></g></g></g><g fill="#f95c5c" fill-opacity="1"><g transform="translate(48.268866, 31.554233)"><g><path d="M 2.03125 0 L 2.03125 -21.71875 L 9.25 -21.71875 L 9.25 -18.078125 L 9.671875 -18.078125 C 10.296875 -19.347656 11.175781 -20.363281 12.3125 -21.125 C 13.457031 -21.882812 14.75 -22.265625 16.1875 -22.265625 C 17.707031 -22.265625 19.070312 -21.847656 20.28125 -21.015625 C 21.488281 -20.179688 22.316406 -19.09375 22.765625 -17.75 L 23.15625 -17.75 C 23.632812 -19.15625 24.460938 -20.257812 25.640625 -21.0625 C 26.828125 -21.863281 28.238281 -22.265625 29.875 -22.265625 C 31.394531 -22.265625 32.738281 -21.921875 33.90625 -21.234375 C 35.070312 -20.546875 35.976562 -19.570312 36.625 -18.3125 C 37.28125 -17.0625 37.609375 -15.601562 37.609375 -13.9375 L 37.609375 0 L 30.328125 0 L 30.328125 -12.203125 C 30.328125 -13.335938 30.015625 -14.285156 29.390625 -15.046875 C 28.773438 -15.804688 27.921875 -16.195312 26.828125 -16.21875 C 25.753906 -16.21875 24.894531 -15.851562 24.25 -15.125 C 23.601562 -14.394531 23.28125 -13.421875 23.28125 -12.203125 L 23.28125 0 L 16.0625 0 L 16.0625 -12.203125 C 16.0625 -13.421875 15.75 -14.394531 15.125 -15.125 C 14.507812 -15.851562 13.691406 -16.21875 12.671875 -16.21875 C 11.628906 -16.21875 10.804688 -15.851562 10.203125 -15.125 C 9.597656 -14.394531 9.296875 -13.421875 9.296875 -12.203125 L 9.296875 0 Z M 2.03125 0 "/></g></g></g></g></g></g></svg>